<?xml version="1.0" encoding="UTF-8"?>
<svg id="_レイヤー_1" data-name="レイヤー 1" xmlns="http://www.w3.org/2000/svg" viewBox="0 0 1350 1080">
  <defs>
    <style>
      .cls-1 {
        fill: #372e51;
      }

      .cls-2 {
        fill: #7d63ce;
      }
    </style>
  </defs>
  <path class="cls-1" d="M-3159.59,1078.64c142.29,1.23,358.22,2.33,638.18.81,22.62-.12,39.2-.24,50.07-.3,141.16-.79,435.2-2.01,1079.19-2.03,439.61-.01,555.99,1.42,1227.52,2.32,296.11.4,537.63.51,692.77.55-231.06-60.35-370.21-104-457.89-137.68-38.16-14.66-134.5-51.58-269.82-68.13-12.82-1.57-24.97-2.58-37.57-3.34-179.62-10.79-293.23,52.39-416.03,94.33-357.2,122-716.95,38.58-1018.41-31.32-311.8-72.3-350.36-143.3-545.81-124.11-210.78,20.7-344.74,95.57-487.59,155.61-103.11,43.34-253.72,92.75-454.61,113.28Z"/>
  <path class="cls-1" d="M184.42,1080c393.44,0,786.87,0,1180.31,0,404.05,0,808.1,0,1212.15,0-385.31-91.92-538.24-143.82-585.39-173.31-18.88-11.81-104.43-64.88-195.01-51.62-88.6,12.97-93.18,69.99-172.07,91.77-150.16,41.45-224.13-140.17-395.75-108.97-77.81,14.14-110.77,60.23-218.24,58.88-54.43-.69-67.45-12.78-114.42-18.73-135.77-17.21-224.75,58.14-372.81,120.45-75.53,31.79-187.82,68.49-338.78,81.54Z"/>
  <path class="cls-2" d="M1370,1080.25c-911.44,1.99-1822.89,3.99-2734.33,5.98,185.14-160,327.29-185.91,425.29-177.66,105.77,8.91,139.4,55.9,285.87,56.6,116.95.56,156.15-29.11,283.89-22.86,108.02,5.28,138.66,29.37,211.62,39.52,253.01,35.2,334.41-191.8,575.19-192.58,32.02-.1,58.08,3.76,81.35,10.8,159.45,48.23,208.25,128.36,375.32,196.89,47.76,19.59,83.23,27.74,154.16,44.05,137.62,31.63,256.12,39.02,341.63,39.26Z"/>
  <path class="cls-2" d="M4089.87,1079.39c-456.62.4-913.25.6-1369.87.61-626.16.01-1252.31-.34-1878.47-1.06,505.02-206.96,705.63-232.84,775.2-194.77,5.2,2.84,31.04,17.74,68.66,31.31,82.38,29.71,145.58,25.76,216.22,26.85,192.39,2.96,174.69,39.22,267.68,22.79,104.45-18.46,114.35-62.01,229.42-75.62,57.08-6.75,98.6-1.23,166.35,7.77,151.27,20.1,183.92,53.77,290.76,57.12,46.63,1.46,99.66-4.9,167.22-25.18,202.82-60.88,298.61-166.72,482.27-139.93,28.35,4.13,51.83,10.48,72.85,18.75,128.42,50.55,186.34,109.78,283.52,172.16,48.19,30.93,122.73,70.96,228.2,99.22Z"/>
</svg>