<?xml version="1.0" encoding="UTF-8"?>
<svg id="_レイヤー_1" data-name="レイヤー 1" xmlns="http://www.w3.org/2000/svg" viewBox="0 0 1350 1080">
  <defs>
    <style>
      .cls-1 {
        fill: #372e51;
      }

      .cls-2 {
        fill: #7d63ce;
      }
    </style>
  </defs>
  <path class="cls-1" d="M-684.88,1075.45c449.7-2.63,899.4-5.26,1349.09-7.89-21.73-15.54-54.24-38.3-94.46-64.58-162.2-105.97-254.79-166.46-342.35-186.73-144.06-33.36-211.54,56.75-487.59,155.61-171.42,61.39-320.74,89.44-424.7,103.59Z"/>
  <path class="cls-2" d="M1349.87,1079.39c-456.62.4-913.25.6-1369.87.61-626.16.01-1252.31-.34-1878.47-1.06,505.02-206.96,705.63-232.84,775.2-194.77,5.2,2.84,31.04,17.74,68.66,31.31,82.38,29.71,145.58,25.76,216.22,26.85,192.39,2.96,174.69,39.22,267.68,22.79,104.45-18.46,114.35-62.01,229.42-75.62,57.08-6.75,98.6-1.23,166.35,7.77,151.27,20.1,183.92,53.77,290.76,57.12,46.63,1.46,99.66-4.9,167.22-25.18,202.82-60.88,298.61-166.72,482.27-139.93,28.35,4.13,51.83,10.48,72.85,18.75,128.42,50.55,186.34,109.78,283.52,172.16,48.19,30.93,122.73,70.96,228.2,99.22Z"/>
</svg>