<?xml version="1.0" encoding="UTF-8"?>
<svg id="_レイヤー_1" data-name="レイヤー 1" xmlns="http://www.w3.org/2000/svg" viewBox="0 0 1350 1080">
  <defs>
    <style>
      .cls-1 {
        fill: #7d63ce;
      }
    </style>
  </defs>
  <path class="cls-1" d="M-1375.42,1084.18c2076.14,5.08,2720.55,2.08,2720.59-3.81.02-3.6-241.24-8.67-697.29-34.29-253.29-14.23-380.8-21.61-422.95-34.29,0,0-210.9-63.47-346.74-49.53-48.94,5.02-84.25,15.14-84.25,15.14-59.51,23.47-150.15,49.89-258.68,42.02-113.89-8.26-118.88-44.94-232.43-49.53-125.11-5.06-155.63,37.98-308.64,30.48-73.65-3.61-78.18-14.15-129.55-11.43-104.68,5.55-186.96,54.68-240.05,95.26Z"/>
</svg>