<?xml version="1.0" encoding="UTF-8"?>
<svg id="_レイヤー_1" data-name="レイヤー 1" xmlns="http://www.w3.org/2000/svg" viewBox="0 0 1350 1080">
  <defs>
    <style>
      .cls-1 {
        fill: #372e51;
      }

      .cls-2 {
        fill: #7d63ce;
      }
    </style>
  </defs>
  <path class="cls-1" d="M-1789.59,1078.64c142.29,1.23,358.22,2.33,638.18.81,22.62-.12,39.2-.24,50.07-.3,141.16-.79,435.2-2.01,1079.19-2.03,439.61-.01,555.99,1.42,1227.52,2.32,296.11.4,537.63.51,692.77.55-231.06-60.35-370.21-104-457.89-137.68-38.16-14.66-134.5-51.58-269.82-68.13-12.82-1.57-24.97-2.58-37.57-3.34-179.62-10.79-293.23,52.39-416.03,94.33-357.2,122-716.95,38.58-1018.41-31.32-311.8-72.3-350.36-143.3-545.81-124.11-210.78,20.7-344.74,95.57-487.59,155.61-103.11,43.34-253.72,92.75-454.61,113.28Z"/>
  <path class="cls-2" d="M2740,1080.25c-911.44,1.99-1822.89,3.99-2734.33,5.98,185.14-160,327.29-185.91,425.29-177.66,105.77,8.91,139.4,55.9,285.87,56.6,116.95.56,156.15-29.11,283.89-22.86,108.02,5.28,138.66,29.37,211.62,39.52,253.01,35.2,334.41-191.8,575.19-192.58,32.02-.1,58.08,3.76,81.35,10.8,159.45,48.23,208.25,128.36,375.32,196.89,47.76,19.59,83.23,27.74,154.16,44.05,137.62,31.63,256.12,39.02,341.63,39.26Z"/>
</svg>