<?xml version="1.0" encoding="UTF-8"?>
<svg id="_レイヤー_1" data-name="レイヤー 1" xmlns="http://www.w3.org/2000/svg" viewBox="0 0 1350 1080">
  <defs>
    <style>
      .cls-1 {
        fill: #372e51;
      }

      .cls-2 {
        fill: #7d63ce;
      }
    </style>
  </defs>
  <path class="cls-1" d="M-419.59,1078.64c142.29,1.23,358.22,2.33,638.18.81,22.62-.12,39.2-.24,50.07-.3,141.16-.79,435.2-2.01,1079.19-2.03,439.61-.01,555.99,1.42,1227.52,2.32,296.11.4,537.63.51,692.77.55-231.06-60.35-370.21-104-457.89-137.68-38.16-14.66-134.5-51.58-269.82-68.13-12.82-1.57-24.97-2.58-37.57-3.34-179.62-10.79-293.23,52.39-416.03,94.33-357.2,122-716.95,38.58-1018.41-31.32-311.8-72.3-350.36-143.3-545.81-124.11-210.78,20.7-344.74,95.57-487.59,155.61-103.11,43.34-253.72,92.75-454.61,113.28Z"/>
  <path class="cls-1" d="M568.46,1082.19c-29.16-54.74-80.28-131.99-167.48-189.89-129.26-85.82-223.61-53.79-415.11-89.53-318.25-59.4-331.35-204.95-545.34-187.21-25.72,2.13-240.84,23.44-366.27,203.48-63.62,91.32-77.73,185.54-81.39,236.04,525.2,9.03,1050.4,18.07,1575.6,27.1Z"/>
  <path class="cls-2" d="M-1370,1079.45c654.72.03,2680.14,0,2717.84-2.32,1.12-.07,1.43-.2,1.48-.36,2.18-8.06-498.96-150.16-880.93-128.22-78.72,4.52-149.35,14.45-250.49-9.22-204.42-47.84-262.04-169.4-411.09-152.69-92.52,10.37-93.36,59.78-196.49,72.36-137.93,16.82-228.35-60.37-308.16-88.79-116.11-41.34-314.79-16.86-672.16,309.24Z"/>
</svg>