<?xml version="1.0" encoding="UTF-8"?>
<svg id="_レイヤー_1" data-name="レイヤー 1" xmlns="http://www.w3.org/2000/svg" viewBox="0 0 1350 1080">
  <defs>
    <style>
      .cls-1 {
        fill: #d6d6d6;
      }
    </style>
  </defs>
  <g>
    <path class="cls-1" d="M979.26,402.73h43.78c18.3,0,33.13,14.83,33.13,33.12v4.02c0,18.3-14.83,33.13-33.13,33.13h-43.78c18.29,0,33.12-14.83,33.12-33.13v-4.02c0-18.29-14.83-33.12-33.12-33.12Z"/>
    <path class="cls-1" d="M979.26,402.23h43.78c18.54,0,33.63,15.08,33.63,33.62v4.02c0,18.54-15.09,33.63-33.63,33.63h-43.78v-1c17.99,0,32.62-14.64,32.62-32.63v-4.02c0-17.99-14.63-32.62-32.62-32.62v-1ZM1023.04,472.5c17.99,0,32.63-14.64,32.63-32.63v-4.02c0-17.99-14.64-32.62-32.63-32.62h-35.62c14.61,3.65,25.46,16.89,25.46,32.62v4.02c0,15.73-10.85,28.98-25.47,32.63h35.63Z"/>
  </g>
  <g>
    <rect class="cls-1" x="217.27" y="260.12" width="543.81" height="1"/>
    <rect class="cls-1" x="729.45" y="402.23" width="249.81" height="1"/>
    <rect class="cls-1" x="793.84" y="538.74" width="39.36" height="1"/>
    <g>
      <path class="cls-1" d="M503.16,655.5v-4.68c0-18.29,14.83-33.12,33.12-33.12h43.79c-18.3,0-33.12,14.83-33.12,33.12v4.68c0,18.3,14.82,33.12,33.12,33.12h-43.79c-18.29,0-33.12-14.82-33.12-33.12Z"/>
      <path class="cls-1" d="M536.28,617.2h43.79v1c-17.99,0-32.62,14.63-32.62,32.62v4.68c0,17.99,14.63,32.62,32.62,32.62v1h-43.79c-18.54,0-33.62-15.08-33.62-33.62v-4.68c0-18.54,15.08-33.62,33.62-33.62ZM571.92,618.2h-35.63c-17.99,0-32.62,14.63-32.62,32.62v4.68c0,17.99,14.63,32.62,32.62,32.62h35.63c-14.61-3.65-25.46-16.89-25.46-32.62v-4.68c0-15.73,10.85-28.97,25.46-32.62Z"/>
    </g>
    <rect class="cls-1" x="580.07" y="688.12" width="432.31" height="1"/>
    <rect class="cls-1" x="580.07" y="617.2" width="253.13" height="1"/>
    <rect class="cls-1" x="793.84" y="472.5" width="185.42" height="1"/>
    <rect class="cls-1" x="729.45" y="327.79" width="31.63" height="1"/>
    <g>
      <path class="cls-1" d="M761.08,260.62h43.79c18.29,0,33.12,14.83,33.12,33.12v1.43c0,18.29-14.83,33.12-33.12,33.12h-43.79c18.3,0,33.13-14.83,33.13-33.12v-1.43c0-18.29-14.83-33.12-33.13-33.12Z"/>
      <path class="cls-1" d="M761.08,260.12h43.79c18.54,0,33.62,15.08,33.62,33.62v1.43c0,18.54-15.08,33.62-33.62,33.62h-43.79v-1c17.99,0,32.63-14.63,32.63-32.62v-1.43c0-17.99-14.64-32.62-32.63-32.62v-1ZM804.87,327.79c17.99,0,32.62-14.63,32.62-32.62v-1.43c0-17.99-14.63-32.62-32.62-32.62h-35.63c14.61,3.65,25.47,16.89,25.47,32.62v1.43c0,15.73-10.86,28.97-25.47,32.62h35.63Z"/>
    </g>
    <rect class="cls-1" x="261.05" y="260.12" width="500.03" height="1"/>
    <g>
      <path class="cls-1" d="M652.55,369.61v-8.2c0-18.29,14.83-33.12,33.12-33.12h43.78c-18.29,0-33.12,14.83-33.12,33.12v8.2c0,18.29,14.83,33.12,33.12,33.12h-43.78c-18.29,0-33.12-14.83-33.12-33.12Z"/>
      <path class="cls-1" d="M685.67,327.79h43.78v1c-17.99,0-32.62,14.63-32.62,32.62v8.2c0,17.99,14.63,32.62,32.62,32.62v1h-43.78c-18.54,0-33.62-15.08-33.62-33.62v-8.2c0-18.54,15.08-33.62,33.62-33.62ZM721.3,328.79h-35.62c-17.99,0-32.62,14.63-32.62,32.62v8.2c0,17.99,14.63,32.62,32.62,32.62h35.62c-14.61-3.65-25.46-16.89-25.46-32.62v-8.2c0-15.73,10.86-28.97,25.46-32.62Z"/>
    </g>
    <rect class="cls-1" x="729.45" y="402.23" width="249.81" height="1"/>
    <g>
      <path class="cls-1" d="M716.94,506.12c0-9.15,3.71-17.43,9.7-23.42s14.28-9.7,23.42-9.7h43.78c-9.14,0-17.42,3.7-23.42,9.7s-9.7,14.27-9.7,23.42c0,18.29,14.83,33.12,33.12,33.12h-43.78c-18.29,0-33.12-14.83-33.12-33.12Z"/>
      <path class="cls-1" d="M750.06,472.5h43.78v1c-8.71,0-16.91,3.39-23.07,9.55s-9.55,14.35-9.55,23.07c0,17.99,14.63,32.62,32.62,32.62v1h-43.78c-18.54,0-33.62-15.08-33.62-33.62,0-8.98,3.5-17.42,9.85-23.77s14.79-9.85,23.77-9.85ZM785.65,473.5h-35.58c-8.71,0-16.91,3.39-23.07,9.55s-9.55,14.35-9.55,23.07c0,17.99,14.63,32.62,32.62,32.62h35.62c-14.61-3.65-25.46-16.89-25.46-32.62,0-8.98,3.5-17.42,9.85-23.77,4.37-4.37,9.73-7.39,15.58-8.85Z"/>
    </g>
    <g>
      <path class="cls-1" d="M833.2,539.24h43.79c18.29,0,33.12,14.83,33.12,33.12v12.22c0,18.29-14.83,33.12-33.12,33.12h-43.79c18.29,0,33.12-14.83,33.12-33.12v-12.22c0-18.29-14.83-33.12-33.12-33.12Z"/>
      <path class="cls-1" d="M833.2,538.74h43.79c18.54,0,33.62,15.08,33.62,33.62v12.22c0,18.54-15.08,33.62-33.62,33.62h-43.79v-1c17.99,0,32.62-14.63,32.62-32.62v-12.22c0-17.99-14.63-32.62-32.62-32.62v-1ZM876.99,617.2c17.99,0,32.62-14.63,32.62-32.62v-12.22c0-17.99-14.63-32.62-32.62-32.62h-35.63c14.61,3.65,25.46,16.89,25.46,32.62v12.22c0,15.73-10.86,28.97-25.46,32.62h35.63Z"/>
    </g>
    <rect class="cls-1" x="793.84" y="538.74" width="39.36" height="1"/>
    <rect class="cls-1" x="580.07" y="688.12" width="476.1" height="1"/>
    <rect class="cls-1" x="580.07" y="617.2" width="253.13" height="1"/>
    <rect class="cls-1" x="793.84" y="472.5" width="185.42" height="1"/>
    <rect class="cls-1" x="729.45" y="327.79" width="31.63" height="1"/>
  </g>
</svg>