<?xml version="1.0" encoding="UTF-8"?>
<svg id="_レイヤー_1" data-name="レイヤー 1" xmlns="http://www.w3.org/2000/svg" viewBox="0 0 1350 1080">
  <defs>
    <style>
      .cls-1 {
        fill: #d6d6d6;
      }
    </style>
  </defs>
  <g>
    <rect class="cls-1" x="-547.65" y="726.92" width="754.56" height="1"/>
    <rect class="cls-1" x="-410.67" y="653.49" width="617.58" height="1"/>
    <rect class="cls-1" x="-338.73" y="945.19" width="921.55" height="1"/>
    <g>
      <path class="cls-1" d="M277.75,688.66v4.09c0,19.14-15.53,34.67-34.67,34.67h-36.16c19.15,0,34.67-15.53,34.67-34.67v-4.09c0-19.15-15.52-34.67-34.67-34.67h36.16c19.14,0,34.67,15.52,34.67,34.67Z"/>
      <path class="cls-1" d="M243.08,727.92h-36.16v-1c18.84,0,34.17-15.33,34.17-34.17v-4.09c0-18.84-15.33-34.17-34.17-34.17v-1h36.16c19.39,0,35.17,15.78,35.17,35.17v4.09c0,19.39-15.78,35.17-35.17,35.17ZM215.26,726.92h27.82c18.84,0,34.17-15.33,34.17-34.17v-4.09c0-18.84-15.33-34.17-34.17-34.17h-27.82c15.38,3.76,26.83,17.65,26.83,34.17v4.09c0,16.52-11.45,30.41-26.83,34.17Z"/>
    </g>
    <rect class="cls-1" x="-547.65" y="726.92" width="754.56" height="1"/>
    <rect class="cls-1" x="-410.67" y="653.49" width="617.58" height="1"/>
    <g>
      <path class="cls-1" d="M58.38,834.51v1c0,19.15-15.52,34.67-34.67,34.67H-12.46c19.15,0,34.67-15.52,34.67-34.67v-1c0-19.15-15.52-34.67-34.67-34.67H23.71c19.15,0,34.67,15.52,34.67,34.67Z"/>
      <path class="cls-1" d="M23.71,870.68H-12.46v-1c18.84,0,34.17-15.33,34.17-34.17v-1c0-18.84-15.33-34.17-34.17-34.17v-1H23.71c19.39,0,35.17,15.78,35.17,35.17v1c0,19.39-15.78,35.17-35.17,35.17ZM-4.11,869.68h27.82c18.84,0,34.17-15.33,34.17-34.17v-1c0-18.84-15.33-34.17-34.17-34.17H-4.11c15.38,3.76,26.83,17.65,26.83,34.17v1c0,16.52-11.45,30.41-26.83,34.17Z"/>
    </g>
    <rect class="cls-1" x="-338.73" y="945.19" width="957.7" height="1"/>
  </g>
  <g>
    <rect class="cls-1" x="483.88" y="257.17" width="409.15" height="1"/>
    <rect class="cls-1" x="327.49" y="181.92" width="565.54" height="1"/>
    <rect class="cls-1" x="-268.06" y="405.21" width="993.85" height="1"/>
    <rect class="cls-1" x="483.88" y="327.77" width="241.91" height="1"/>
    <rect class="cls-1" x="327.49" y="109.13" width="362.33" height="1"/>
    <g>
      <path class="cls-1" d="M327.49,182.42h-55.04c-19.5,0-35.3-15.81-35.3-35.3v-2.19c0-19.5,15.8-35.3,35.3-35.3h55.04c-19.49,0-35.3,15.8-35.3,35.3v2.19c0,19.49,15.81,35.3,35.3,35.3Z"/>
      <path class="cls-1" d="M327.49,182.92h-55.04c-19.74,0-35.8-16.06-35.8-35.8v-2.19c0-19.74,16.06-35.8,35.8-35.8h55.04v1c-19.19,0-34.8,15.61-34.8,34.8v2.19c0,19.19,15.61,34.8,34.8,34.8v1ZM272.45,110.13c-19.19,0-34.8,15.61-34.8,34.8v2.19c0,19.19,15.61,34.8,34.8,34.8h46.62c-15.69-3.8-27.38-17.96-27.38-34.8v-2.19c0-16.84,11.69-31,27.38-34.8h-46.62Z"/>
    </g>
    <g>
      <path class="cls-1" d="M458.92,317.93c6.39,6.39,15.21,10.34,24.96,10.34h-55.05c-9.75,0-18.58-3.95-24.96-10.34-6.39-6.39-10.34-15.21-10.34-24.96,0-19.5,15.8-35.3,35.3-35.3h55.05c-19.5,0-35.3,15.8-35.3,35.3,0,9.75,3.95,18.57,10.34,24.96Z"/>
      <path class="cls-1" d="M483.88,328.77h-55.05c-9.57,0-18.56-3.72-25.31-10.49-6.76-6.76-10.49-15.75-10.49-25.31,0-19.74,16.06-35.8,35.8-35.8h55.05v1c-19.19,0-34.8,15.61-34.8,34.8,0,9.29,3.62,18.03,10.19,24.61h0c6.57,6.57,15.31,10.19,24.61,10.19v1ZM428.83,258.17c-19.19,0-34.8,15.61-34.8,34.8,0,9.29,3.62,18.03,10.19,24.61,6.56,6.57,15.3,10.19,24.61,10.19h46.59c-6.33-1.53-12.13-4.77-16.85-9.49h0s0,0,0,0c-6.76-6.76-10.49-15.75-10.49-25.31,0-16.84,11.69-31,27.38-34.8h-46.63Z"/>
    </g>
    <g>
      <path class="cls-1" d="M983.38,217.72v4.64c0,19.5-15.81,35.31-35.3,35.31h-55.05c19.5,0,35.3-15.81,35.3-35.31v-4.64c0-19.49-15.8-35.3-35.3-35.3h55.05c19.49,0,35.3,15.81,35.3,35.3Z"/>
      <path class="cls-1" d="M948.08,258.17h-55.05v-1c19.19,0,34.8-15.62,34.8-34.81v-4.64c0-19.19-15.61-34.8-34.8-34.8v-1h55.05c19.74,0,35.8,16.06,35.8,35.8v4.64c0,19.75-16.06,35.81-35.8,35.81ZM901.45,257.17h46.63c19.19,0,34.8-15.62,34.8-34.81v-4.64c0-19.19-15.61-34.8-34.8-34.8h-46.63c15.69,3.8,27.38,17.96,27.38,34.8v4.64c0,16.85-11.69,31.01-27.38,34.81Z"/>
    </g>
    <rect class="cls-1" x="483.88" y="257.17" width="409.15" height="1"/>
    <rect class="cls-1" x="327.49" y="181.92" width="565.54" height="1"/>
    <g>
      <path class="cls-1" d="M816.14,363.57v6.83c0,19.5-15.8,35.31-35.3,35.31h-55.05c19.5,0,35.31-15.81,35.31-35.31v-6.83c0-19.49-15.81-35.3-35.31-35.3h55.05c19.5,0,35.3,15.81,35.3,35.3Z"/>
      <path class="cls-1" d="M780.84,406.21h-55.05v-1c19.19,0,34.81-15.62,34.81-34.81v-6.83c0-19.19-15.62-34.8-34.81-34.8v-1h55.05c19.74,0,35.8,16.06,35.8,35.8v6.83c0,19.75-16.06,35.81-35.8,35.81ZM734.21,405.21h46.63c19.19,0,34.8-15.62,34.8-34.81v-6.83c0-19.19-15.61-34.8-34.8-34.8h-46.63c15.7,3.8,27.39,17.96,27.39,34.8v6.83c0,16.85-11.69,31.01-27.39,34.81Z"/>
    </g>
    <rect class="cls-1" x="-213.01" y="405.21" width="938.8" height="1"/>
    <rect class="cls-1" x="483.88" y="327.77" width="241.91" height="1"/>
    <rect class="cls-1" x="327.49" y="109.13" width="417.38" height="1"/>
  </g>
  <g>
    <rect class="cls-1" x="1275.52" y="327.62" width="882.34" height="1"/>
    <rect class="cls-1" x="1311.85" y="327.62" width="846.01" height="1"/>
  </g>
  <g>
    <rect class="cls-1" x="1248.93" y="773.56" width="196.2" height="1"/>
    <rect class="cls-1" x="1248.93" y="849.06" width="842.59" height="1"/>
    <rect class="cls-1" x="1010.82" y="697.1" width="434.31" height="1"/>
    <g>
      <path class="cls-1" d="M1248.93,849.56h-36.33c-18.3,0-33.12-14.82-33.12-33.12v-9.25c0-18.3,14.82-33.13,33.12-33.13h36.33c-18.29,0-33.12,14.83-33.12,33.13v9.25c0,18.3,14.83,33.12,33.12,33.12Z"/>
      <path class="cls-1" d="M1248.93,850.06h-36.33c-18.54,0-33.62-15.08-33.62-33.62v-9.25c0-18.54,15.08-33.63,33.62-33.63h36.33v1c-17.99,0-32.62,14.64-32.62,32.63v9.25c0,17.99,14.63,32.62,32.62,32.62v1ZM1212.6,774.56c-17.99,0-32.62,14.64-32.62,32.63v9.25c0,17.99,14.63,32.62,32.62,32.62h28.17c-14.61-3.65-25.46-16.89-25.46-32.62v-9.25c0-15.73,10.85-28.98,25.47-32.63h-28.18Z"/>
    </g>
    <rect class="cls-1" x="1248.93" y="773.56" width="196.2" height="1"/>
    <rect class="cls-1" x="1248.93" y="849.06" width="806.26" height="1"/>
    <rect class="cls-1" x="974.48" y="697.1" width="470.65" height="1"/>
  </g>
</svg>