<?xml version="1.0" encoding="UTF-8"?>
<svg id="_レイヤー_1" data-name="レイヤー 1" xmlns="http://www.w3.org/2000/svg" viewBox="0 0 1350 1080">
  <defs>
    <style>
      .cls-1 {
        fill: #d6d6d6;
      }
    </style>
  </defs>
  <path class="cls-1" d="M406.4,366.61H-315.77c-8.7,0-16.89-3.39-23.04-9.55-6.15-6.16-9.54-14.34-9.54-23.04,0-17.97,14.62-32.59,32.58-32.59H188.07c19.07,0,34.59-15.52,34.59-34.59v-12.59c0-19.07-15.52-34.59-34.59-34.59h-869.75v2H141.25c17.97,0,32.59,14.62,32.59,32.59v12.59c0,17.97-14.62,32.59-32.59,32.59h-503.84c-19.07,0-34.59,15.52-34.59,34.59,0,9.24,3.6,17.92,10.13,24.46s15.22,10.13,24.46,10.13H359.58c17.97,0,32.59,14.62,32.59,32.59v8.4c0,17.97-14.62,32.59-32.59,32.59H-501.14c-19.07,0-34.59,15.51-34.59,34.58,0,9.25,3.6,17.93,10.13,24.46,6.53,6.53,15.22,10.13,24.46,10.13H-135.22v-2h-319.1c-8.7,0-16.89-3.39-23.04-9.55h0c-6.16-6.15-9.55-14.33-9.55-23.04,0-17.96,14.62-32.58,32.59-32.58H406.4c19.07,0,34.59-15.52,34.59-34.59v-8.4c0-19.07-15.52-34.59-34.59-34.59Z"/>
  <path class="cls-1" d="M1261.72,733.21h-722.17c-8.7,0-16.89-3.39-23.04-9.55-6.15-6.16-9.54-14.34-9.54-23.04,0-17.97,14.62-32.59,32.58-32.59h503.84c19.07,0,34.59-15.52,34.59-34.59v-12.59c0-19.07-15.52-34.59-34.59-34.59H173.64v2h822.93c17.97,0,32.59,14.62,32.59,32.59v12.59c0,17.97-14.62,32.59-32.59,32.59h-503.84c-19.07,0-34.59,15.52-34.59,34.59,0,9.24,3.6,17.92,10.13,24.46s15.22,10.13,24.46,10.13h722.17c17.97,0,32.59,14.62,32.59,32.59v8.4c0,17.97-14.62,32.59-32.59,32.59H354.18c-19.07,0-34.59,15.51-34.59,34.58,0,9.25,3.6,17.93,10.13,24.46,6.53,6.53,15.22,10.13,24.46,10.13h365.92v-2h-319.1c-8.7,0-16.89-3.39-23.04-9.55h0c-6.16-6.15-9.55-14.33-9.55-23.04,0-17.96,14.62-32.58,32.59-32.58h860.72c19.07,0,34.59-15.52,34.59-34.59v-8.4c0-19.07-15.52-34.59-34.59-34.59Z"/>
</svg>