<?xml version="1.0" encoding="UTF-8"?>
<svg id="_レイヤー_1" data-name="レイヤー 1" xmlns="http://www.w3.org/2000/svg" viewBox="0 0 1350 1080">
  <defs>
    <style>
      .cls-1 {
        fill: #d6d6d6;
      }
    </style>
  </defs>
  <g>
    <rect class="cls-1" x="720.08" y="181.94" width="196.2" height="1"/>
    <rect class="cls-1" x="73.69" y="106.44" width="842.59" height="1"/>
    <rect class="cls-1" x="720.08" y="258.4" width="434.31" height="1"/>
    <g>
      <path class="cls-1" d="M650.63,225.78v-10.22c0-18.3,14.83-33.12,33.12-33.12h36.33c-18.29,0-33.12,14.82-33.12,33.12v10.22c0,18.29,14.83,33.12,33.12,33.12h-36.33c-18.29,0-33.12-14.83-33.12-33.12Z"/>
      <path class="cls-1" d="M683.75,181.94h36.33v1c-17.99,0-32.62,14.63-32.62,32.62v10.22c0,17.99,14.63,32.62,32.62,32.62v1h-36.33c-18.54,0-33.62-15.08-33.62-33.62v-10.22c0-18.54,15.08-33.62,33.62-33.62ZM711.92,182.94h-28.18c-17.99,0-32.62,14.63-32.62,32.62v10.22c0,17.99,14.63,32.62,32.62,32.62h28.18c-14.61-3.65-25.47-16.89-25.47-32.62v-10.22c0-15.73,10.85-28.97,25.47-32.62Z"/>
    </g>
    <g>
      <path class="cls-1" d="M916.28,106.94h36.33c18.3,0,33.12,14.82,33.12,33.12v9.25c0,18.3-14.82,33.13-33.12,33.13h-36.33c18.29,0,33.12-14.83,33.12-33.13v-9.25c0-18.3-14.83-33.12-33.12-33.12Z"/>
      <path class="cls-1" d="M916.28,106.44h36.33c18.54,0,33.62,15.08,33.62,33.62v9.25c0,18.54-15.08,33.63-33.62,33.63h-36.33v-1c17.99,0,32.62-14.64,32.62-32.63v-9.25c0-17.99-14.63-32.62-32.62-32.62v-1ZM952.61,181.94c17.99,0,32.62-14.64,32.62-32.63v-9.25c0-17.99-14.63-32.62-32.62-32.62h-28.17c14.61,3.65,25.46,16.89,25.46,32.62v9.25c0,15.73-10.85,28.98-25.47,32.63h28.18Z"/>
    </g>
    <rect class="cls-1" x="720.08" y="181.94" width="196.2" height="1"/>
    <rect class="cls-1" x="110.02" y="106.44" width="806.26" height="1"/>
    <rect class="cls-1" x="720.08" y="258.4" width="470.65" height="1"/>
  </g>
  <g>
    <rect class="cls-1" x="680.7" y="796.26" width="487.15" height="1"/>
    <g>
      <path class="cls-1" d="M943.79,688.22v8.45c0,18.29-14.83,33.12-33.13,33.12h-43.78c18.29,0,33.12-14.83,33.12-33.12v-8.45c0-18.3-14.83-33.12-33.12-33.12h43.78c18.3,0,33.13,14.82,33.13,33.12Z"/>
      <path class="cls-1" d="M910.65,730.28h-43.78v-1c17.99,0,32.62-14.63,32.62-32.62v-8.45c0-17.99-14.63-32.62-32.62-32.62v-1h43.78c18.54,0,33.63,15.08,33.63,33.62v8.45c0,18.54-15.09,33.62-33.63,33.62ZM875.03,729.28h35.62c17.99,0,32.63-14.63,32.63-32.62v-8.45c0-17.99-14.64-32.62-32.63-32.62h-35.62c14.61,3.65,25.47,16.89,25.47,32.62v8.45c0,15.73-10.86,28.96-25.47,32.62Z"/>
    </g>
    <rect class="cls-1" x="508.14" y="654.6" width="358.74" height="1"/>
    <g>
      <path class="cls-1" d="M668.19,542.69v9.74c0,18.3-14.83,33.12-33.12,33.12h-43.78c18.29,0,33.12-14.82,33.12-33.12v-9.74c0-18.29-14.83-33.12-33.12-33.12h43.78c18.29,0,33.12,14.83,33.12,33.12Z"/>
      <path class="cls-1" d="M635.06,586.05h-43.78v-1c17.99,0,32.62-14.63,32.62-32.62v-9.74c0-17.99-14.63-32.62-32.62-32.62v-1h43.78c18.54,0,33.62,15.08,33.62,33.62v9.74c0,18.54-15.08,33.62-33.62,33.62ZM599.44,585.05h35.62c17.99,0,32.62-14.63,32.62-32.62v-9.74c0-17.99-14.63-32.62-32.62-32.62h-35.62c14.61,3.65,25.46,16.89,25.46,32.62v9.74c0,15.73-10.86,28.97-25.46,32.62Z"/>
    </g>
    <rect class="cls-1" x="225.94" y="509.06" width="365.35" height="1"/>
    <rect class="cls-1" x="508.14" y="585.05" width="83.15" height="1"/>
    <rect class="cls-1" x="680.7" y="729.29" width="186.17" height="1"/>
    <g>
      <path class="cls-1" d="M680.71,796.76h-43.79c-18.29,0-33.12-14.83-33.12-33.13v-.72c0-18.29,14.83-33.12,33.12-33.12h43.79c-18.29,0-33.12,14.83-33.12,33.12v.72c0,18.3,14.83,33.13,33.12,33.13Z"/>
      <path class="cls-1" d="M680.7,797.26h-43.79c-18.54,0-33.62-15.09-33.62-33.63v-.72c0-18.54,15.08-33.62,33.62-33.62h43.79v1c-17.99,0-32.62,14.63-32.62,32.62v.72c0,17.99,14.63,32.63,32.62,32.63v1ZM636.92,730.28c-17.99,0-32.62,14.63-32.62,32.62v.72c0,17.99,14.63,32.63,32.62,32.63h35.64c-14.61-3.65-25.47-16.9-25.47-32.63v-.72c0-15.73,10.85-28.97,25.46-32.62h-35.63Z"/>
    </g>
    <rect class="cls-1" x="680.7" y="796.26" width="443.37" height="1"/>
    <g>
      <path class="cls-1" d="M508.14,655.1h-43.78c-18.29,0-33.12-14.83-33.12-33.13v-3.29c0-18.3,14.83-33.13,33.12-33.13h43.78c-18.29,0-33.12,14.83-33.12,33.13v3.29c0,18.3,14.83,33.13,33.12,33.13Z"/>
      <path class="cls-1" d="M508.14,655.6h-43.78c-18.54,0-33.62-15.09-33.62-33.63v-3.29c0-18.54,15.08-33.63,33.62-33.63h43.78v1c-17.99,0-32.62,14.64-32.62,32.63v3.29c0,17.99,14.63,32.63,32.62,32.63v1ZM464.35,586.05c-17.99,0-32.62,14.64-32.62,32.63v3.29c0,17.99,14.63,32.63,32.62,32.63h35.63c-14.61-3.65-25.47-16.9-25.47-32.63v-3.29c0-15.73,10.85-28.98,25.47-32.63h-35.63Z"/>
    </g>
    <rect class="cls-1" x="508.14" y="654.6" width="358.74" height="1"/>
    <rect class="cls-1" x="182.15" y="509.06" width="409.14" height="1"/>
    <rect class="cls-1" x="508.14" y="585.05" width="83.15" height="1"/>
    <rect class="cls-1" x="680.7" y="729.29" width="186.17" height="1"/>
  </g>
</svg>