<?xml version="1.0" encoding="UTF-8"?>
<svg id="_レイヤー_1" data-name="レイヤー 1" xmlns="http://www.w3.org/2000/svg" viewBox="0 0 1350 1080">
  <defs>
    <style>
      .cls-1 {
        fill: #d6d6d6;
      }
    </style>
  </defs>
  <g>
    <g>
      <path class="cls-1" d="M410.24,577.66v7.67c0,19.08-15.46,34.54-34.53,34.54h-53c19.07,0,34.53-15.46,34.53-34.54v-7.67c0-19.07-15.46-34.53-34.53-34.53h53c19.07,0,34.53,15.46,34.53,34.53Z"/>
      <path class="cls-1" d="M375.71,620.37h-53v-1c18.76,0,34.03-15.27,34.03-34.04v-7.67c0-18.76-15.27-34.03-34.03-34.03v-1h53c19.32,0,35.03,15.71,35.03,35.03v7.67c0,19.32-15.71,35.04-35.03,35.04ZM331.04,619.37h44.67c18.76,0,34.03-15.27,34.03-34.04v-7.67c0-18.76-15.27-34.03-34.03-34.03h-44.67c15.31,3.75,26.7,17.58,26.7,34.03v7.67c0,16.45-11.39,30.29-26.7,34.04Z"/>
    </g>
    <rect class="cls-1" x="-219" y="619.37" width="541.71" height="1"/>
    <rect class="cls-1" x="-1193.56" y="765.17" width="1370.47" height="1"/>
    <rect class="cls-1" x="-219" y="696.1" width="395.91" height="1"/>
    <rect class="cls-1" x="-679.42" y="542.63" width="1002.13" height="1"/>
    <rect class="cls-1" x="-219" y="619.37" width="541.71" height="1"/>
    <g>
      <path class="cls-1" d="M264.44,731.13c0,9.54-3.86,18.17-10.11,24.43-6.25,6.24-14.89,10.11-24.42,10.11h-53c9.53,0,18.17-3.87,24.42-10.11,6.25-6.26,10.11-14.89,10.11-24.43,0-19.07-15.46-34.53-34.53-34.53h53c19.07,0,34.53,15.46,34.53,34.53Z"/>
      <path class="cls-1" d="M229.91,766.17h-53v-1c9.08,0,17.63-3.54,24.07-9.96,6.42-6.43,9.96-14.99,9.96-24.08,0-18.76-15.27-34.03-34.03-34.03v-1h53c19.32,0,35.03,15.71,35.03,35.03,0,9.36-3.64,18.16-10.26,24.78-6.62,6.61-15.42,10.26-24.77,10.26ZM185.28,765.17h44.63c9.08,0,17.63-3.54,24.07-9.96,6.42-6.43,9.96-14.99,9.96-24.08,0-18.76-15.27-34.03-34.03-34.03h-44.67c15.31,3.75,26.7,17.58,26.7,34.03,0,9.36-3.64,18.16-10.26,24.78-4.6,4.59-10.25,7.75-16.41,9.26Z"/>
    </g>
    <rect class="cls-1" x="-1246.56" y="765.17" width="1423.47" height="1"/>
    <rect class="cls-1" x="-219" y="696.1" width="395.91" height="1"/>
    <rect class="cls-1" x="-732.42" y="542.63" width="1055.13" height="1"/>
  </g>
  <g>
    <rect class="cls-1" x="822.35" y="726.92" width="754.56" height="1"/>
    <rect class="cls-1" x="959.33" y="653.49" width="617.58" height="1"/>
    <rect class="cls-1" x="1031.27" y="869.68" width="326.27" height="1"/>
    <rect class="cls-1" x="1031.27" y="945.19" width="921.55" height="1"/>
    <rect class="cls-1" x="822.35" y="799.34" width="535.19" height="1"/>
    <rect class="cls-1" x="959.33" y="584.15" width="366.72" height="1"/>
    <g>
      <path class="cls-1" d="M934.81,643.84c6.28,6.27,14.94,10.15,24.52,10.15h-36.16c-9.57,0-18.24-3.88-24.51-10.15-6.27-6.28-10.15-14.95-10.15-24.52,0-19.15,15.52-34.67,34.66-34.67h36.16c-19.15,0-34.67,15.52-34.67,34.67,0,9.57,3.88,18.24,10.15,24.52Z"/>
      <path class="cls-1" d="M959.33,654.49h-36.16c-9.39,0-18.22-3.66-24.86-10.3-6.64-6.65-10.3-15.48-10.3-24.87,0-19.39,15.77-35.17,35.16-35.17h36.16v1c-18.84,0-34.17,15.33-34.17,34.17,0,9.12,3.55,17.71,10,24.17,6.46,6.45,15.04,10,24.17,10v1ZM923.17,585.15c-18.84,0-34.16,15.33-34.16,34.17,0,9.12,3.55,17.71,10,24.17,6.45,6.45,15.03,10,24.16,10h27.78c-6.19-1.51-11.87-4.68-16.49-9.3h0c-6.64-6.65-10.3-15.48-10.3-24.87,0-16.52,11.45-30.41,26.83-34.17h-27.82Z"/>
    </g>
    <g>
      <path class="cls-1" d="M822.35,799.84h-36.16c-19.15,0-34.67-15.52-34.67-34.67v-3.09c0-19.14,15.52-34.66,34.67-34.66h36.16c-19.15,0-34.67,15.52-34.67,34.66v3.09c0,19.15,15.52,34.67,34.67,34.67Z"/>
      <path class="cls-1" d="M822.35,800.34h-36.16c-19.39,0-35.17-15.78-35.17-35.17v-3.09c0-19.39,15.78-35.16,35.17-35.16h36.16v1c-18.84,0-34.17,15.32-34.17,34.16v3.09c0,18.84,15.33,34.17,34.17,34.17v1ZM786.19,727.92c-18.84,0-34.17,15.32-34.17,34.16v3.09c0,18.84,15.33,34.17,34.17,34.17h27.82c-15.38-3.76-26.83-17.65-26.83-34.17v-3.09c0-16.51,11.45-30.41,26.82-34.16h-27.81Z"/>
    </g>
    <rect class="cls-1" x="822.35" y="726.92" width="754.56" height="1"/>
    <rect class="cls-1" x="959.33" y="653.49" width="617.58" height="1"/>
    <g>
      <path class="cls-1" d="M1031.27,945.69h-36.16c-19.15,0-34.67-15.52-34.67-34.67v-6.17c0-19.15,15.52-34.67,34.67-34.67h36.16c-19.15,0-34.67,15.52-34.67,34.67v6.17c0,19.15,15.52,34.67,34.67,34.67Z"/>
      <path class="cls-1" d="M1031.27,946.19h-36.16c-19.39,0-35.17-15.78-35.17-35.17v-6.17c0-19.39,15.78-35.17,35.17-35.17h36.16v1c-18.84,0-34.17,15.33-34.17,34.17v6.17c0,18.84,15.33,34.17,34.17,34.17v1ZM995.12,870.68c-18.84,0-34.17,15.33-34.17,34.17v6.17c0,18.84,15.33,34.17,34.17,34.17h27.82c-15.38-3.76-26.83-17.65-26.83-34.17v-6.17c0-16.52,11.45-30.41,26.83-34.17h-27.82Z"/>
    </g>
    <rect class="cls-1" x="1031.27" y="869.68" width="326.27" height="1"/>
    <rect class="cls-1" x="1031.27" y="945.19" width="957.7" height="1"/>
    <rect class="cls-1" x="822.35" y="799.34" width="535.19" height="1"/>
    <rect class="cls-1" x="959.33" y="584.15" width="402.88" height="1"/>
  </g>
  <g>
    <rect class="cls-1" x="1101.94" y="405.21" width="993.85" height="1"/>
    <rect class="cls-1" x="1156.99" y="405.21" width="938.8" height="1"/>
  </g>
</svg>