<?xml version="1.0" encoding="UTF-8"?>
<svg id="_レイヤー_1" data-name="レイヤー 1" xmlns="http://www.w3.org/2000/svg" viewBox="0 0 1350 1080">
  <defs>
    <style>
      .cls-1 {
        fill: #d6d6d6;
      }
    </style>
  </defs>
  <path class="cls-1" d="M1191.91,329.87H469.74c-8.7,0-16.89-3.39-23.04-9.55-6.15-6.16-9.54-14.34-9.54-23.04,0-17.97,14.62-32.59,32.58-32.59h503.84c19.07,0,34.59-15.52,34.59-34.59v-12.59c0-19.07-15.52-34.59-34.59-34.59H103.83v2h822.93c17.97,0,32.59,14.62,32.59,32.59v12.59c0,17.97-14.62,32.59-32.59,32.59h-503.84c-19.07,0-34.59,15.52-34.59,34.59,0,9.24,3.6,17.92,10.13,24.46s15.22,10.13,24.46,10.13h722.17c17.97,0,32.59,14.62,32.59,32.59v8.4c0,17.97-14.62,32.59-32.59,32.59H284.37c-19.07,0-34.59,15.51-34.59,34.58,0,9.25,3.6,17.93,10.13,24.46,6.53,6.53,15.22,10.13,24.46,10.13h365.92v-2h-319.1c-8.7,0-16.89-3.39-23.04-9.55h0c-6.16-6.15-9.55-14.33-9.55-23.04,0-17.96,14.62-32.58,32.59-32.58h860.72c19.07,0,34.59-15.52,34.59-34.59v-8.4c0-19.07-15.52-34.59-34.59-34.59Z"/>
  <g>
    <rect class="cls-1" x="1151" y="619.37" width="541.71" height="1"/>
    <rect class="cls-1" x="176.44" y="765.17" width="1370.47" height="1"/>
    <rect class="cls-1" x="1151" y="696.1" width="395.91" height="1"/>
    <rect class="cls-1" x="690.58" y="542.63" width="1002.13" height="1"/>
    <g>
      <path class="cls-1" d="M1151,696.6h-53c-19.07,0-34.53-15.46-34.53-34.53v-7.67c0-19.07,15.46-34.53,34.53-34.53h53c-19.07,0-34.53,15.46-34.53,34.53v7.67c0,19.07,15.46,34.53,34.53,34.53Z"/>
      <path class="cls-1" d="M1151,697.1h-53c-19.32,0-35.03-15.71-35.03-35.03v-7.67c0-19.32,15.71-35.03,35.03-35.03h53v1c-18.76,0-34.03,15.27-34.03,34.03v7.67c0,18.76,15.27,34.03,34.03,34.03v1ZM1098,620.37c-18.76,0-34.03,15.27-34.03,34.03v7.67c0,18.76,15.27,34.03,34.03,34.03h44.67c-15.31-3.75-26.7-17.58-26.7-34.03v-7.67c0-16.45,11.39-30.28,26.7-34.03h-44.67Z"/>
    </g>
    <rect class="cls-1" x="1151" y="619.37" width="541.71" height="1"/>
    <rect class="cls-1" x="123.44" y="765.17" width="1423.47" height="1"/>
    <rect class="cls-1" x="1151" y="696.1" width="395.91" height="1"/>
    <rect class="cls-1" x="637.58" y="542.63" width="1055.13" height="1"/>
  </g>
</svg>