<?xml version="1.0" encoding="UTF-8"?>
<svg id="_レイヤー_1" data-name="レイヤー 1" xmlns="http://www.w3.org/2000/svg" viewBox="0 0 1350 1080">
  <defs>
    <style>
      .cls-1 {
        fill: #d6d6d6;
      }
    </style>
  </defs>
  <g>
    <rect class="cls-1" x="-94.48" y="327.62" width="882.34" height="1"/>
    <rect class="cls-1" x="-58.15" y="327.62" width="846.01" height="1"/>
    <g>
      <rect class="cls-1" x="824.07" y="542.29" width="112.14" height="1"/>
      <rect class="cls-1" x="601.55" y="394.75" width="186.31" height="1"/>
      <rect class="cls-1" x="601.55" y="471.19" width="334.66" height="1"/>
      <rect class="cls-1" x="824.07" y="617.04" width="285.8" height="1"/>
      <g>
        <path class="cls-1" d="M754.62,584.42v-8.51c0-18.29,14.83-33.12,33.12-33.12h36.33c-18.29,0-33.12,14.83-33.12,33.12v8.51c0,18.29,14.83,33.12,33.12,33.12h-36.33c-18.29,0-33.12-14.83-33.12-33.12Z"/>
        <path class="cls-1" d="M787.74,542.29h36.33v1c-17.99,0-32.62,14.63-32.62,32.62v8.51c0,17.99,14.63,32.62,32.62,32.62v1h-36.33c-18.54,0-33.62-15.08-33.62-33.62v-8.51c0-18.54,15.08-33.62,33.62-33.62ZM815.92,543.29h-28.18c-17.99,0-32.62,14.63-32.62,32.62v8.51c0,17.99,14.63,32.62,32.62,32.62h28.18c-14.61-3.65-25.46-16.89-25.46-32.62v-8.51c0-15.73,10.85-28.97,25.46-32.62Z"/>
      </g>
      <g>
        <path class="cls-1" d="M936.21,471.69h36.34c18.29,0,33.12,14.83,33.12,33.12v4.86c0,18.29-14.83,33.12-33.12,33.12h-36.34c18.29,0,33.12-14.83,33.12-33.12v-4.86c0-18.29-14.83-33.12-33.12-33.12Z"/>
        <path class="cls-1" d="M936.21,471.19h36.34c18.54,0,33.62,15.08,33.62,33.62v4.86c0,18.54-15.08,33.62-33.62,33.62h-36.34v-1c17.99,0,32.62-14.63,32.62-32.62v-4.86c0-17.99-14.63-32.62-32.62-32.62v-1ZM972.55,542.29c17.99,0,32.62-14.63,32.62-32.62v-4.86c0-17.99-14.63-32.62-32.62-32.62h-28.18c14.61,3.65,25.46,16.89,25.46,32.62v4.86c0,15.73-10.85,28.97-25.47,32.62h28.19Z"/>
      </g>
      <rect class="cls-1" x="824.07" y="542.29" width="112.14" height="1"/>
      <g>
        <path class="cls-1" d="M532.09,438.57v-10.2c0-18.29,14.83-33.12,33.13-33.12h36.33c-18.29,0-33.12,14.83-33.12,33.12v10.2c0,18.29,14.83,33.12,33.12,33.12h-36.33c-18.3,0-33.13-14.83-33.13-33.12Z"/>
        <path class="cls-1" d="M565.22,394.75h36.33v1c-17.99,0-32.62,14.63-32.62,32.62v10.2c0,17.99,14.63,32.62,32.62,32.62v1h-36.33c-18.54,0-33.63-15.08-33.63-33.62v-10.2c0-18.54,15.09-33.62,33.63-33.62ZM593.4,395.75h-28.18c-17.99,0-32.63,14.63-32.63,32.62v10.2c0,17.99,14.64,32.62,32.63,32.62h28.18c-14.61-3.65-25.47-16.89-25.47-32.62v-10.2c0-15.73,10.85-28.97,25.47-32.62Z"/>
      </g>
      <g>
        <path class="cls-1" d="M787.86,328.13h36.34c18.29,0,33.12,14.83,33.12,33.12v.88c0,18.29-14.83,33.12-33.12,33.12h-36.34c18.29,0,33.12-14.83,33.12-33.12v-.88c0-18.29-14.83-33.12-33.12-33.12Z"/>
        <path class="cls-1" d="M787.86,327.62h36.34c18.54,0,33.62,15.08,33.62,33.62v.88c0,18.54-15.08,33.62-33.62,33.62h-36.34v-1c17.99,0,32.62-14.63,32.62-32.62v-.88c0-17.99-14.63-32.62-32.62-32.62v-1ZM824.2,394.75c17.99,0,32.62-14.63,32.62-32.62v-.88c0-17.99-14.63-32.62-32.62-32.62h-28.19c14.61,3.65,25.47,16.89,25.47,32.62v.88c0,15.73-10.85,28.97-25.47,32.62h28.19Z"/>
      </g>
      <rect class="cls-1" x="601.55" y="394.75" width="186.31" height="1"/>
      <rect class="cls-1" x="601.55" y="471.19" width="334.66" height="1"/>
      <rect class="cls-1" x="824.07" y="617.04" width="322.14" height="1"/>
    </g>
  </g>
  <g>
    <rect class="cls-1" x="-121.07" y="773.56" width="196.2" height="1"/>
    <rect class="cls-1" x="-121.07" y="849.06" width="842.59" height="1"/>
    <rect class="cls-1" x="-359.18" y="697.1" width="434.31" height="1"/>
    <g>
      <path class="cls-1" d="M144.58,730.72v10.22c0,18.3-14.83,33.12-33.12,33.12h-36.33c18.29,0,33.12-14.82,33.12-33.12v-10.22c0-18.29-14.83-33.12-33.12-33.12h36.33c18.29,0,33.12,14.83,33.12,33.12Z"/>
      <path class="cls-1" d="M111.46,774.56h-36.33v-1c17.99,0,32.62-14.63,32.62-32.62v-10.22c0-17.99-14.63-32.62-32.62-32.62v-1h36.33c18.54,0,33.62,15.08,33.62,33.62v10.22c0,18.54-15.08,33.62-33.62,33.62ZM83.28,773.56h28.18c17.99,0,32.62-14.63,32.62-32.62v-10.22c0-17.99-14.63-32.62-32.62-32.62h-28.18c14.61,3.65,25.47,16.89,25.47,32.62v10.22c0,15.73-10.85,28.97-25.47,32.62Z"/>
    </g>
    <rect class="cls-1" x="-121.07" y="773.56" width="196.2" height="1"/>
    <rect class="cls-1" x="-121.07" y="849.06" width="806.26" height="1"/>
    <rect class="cls-1" x="-395.52" y="697.1" width="470.65" height="1"/>
  </g>
</svg>