<?xml version="1.0" encoding="UTF-8"?>
<svg id="_レイヤー_1" data-name="レイヤー 1" xmlns="http://www.w3.org/2000/svg" viewBox="0 0 1350 1080">
  <defs>
    <style>
      .cls-1 {
        fill: #d6d6d6;
      }
    </style>
  </defs>
  <path class="cls-1" d="M1776.4,366.61h-722.17c-8.7,0-16.89-3.39-23.04-9.55-6.15-6.16-9.54-14.34-9.54-23.04,0-17.97,14.62-32.59,32.58-32.59h503.84c19.07,0,34.59-15.52,34.59-34.59v-12.59c0-19.07-15.52-34.59-34.59-34.59h-869.75v2h822.93c17.97,0,32.59,14.62,32.59,32.59v12.59c0,17.97-14.62,32.59-32.59,32.59h-503.84c-19.07,0-34.59,15.52-34.59,34.59,0,9.24,3.6,17.92,10.13,24.46s15.22,10.13,24.46,10.13h722.17c17.97,0,32.59,14.62,32.59,32.59v8.4c0,17.97-14.62,32.59-32.59,32.59h-860.72c-19.07,0-34.59,15.51-34.59,34.58,0,9.25,3.6,17.93,10.13,24.46,6.53,6.53,15.22,10.13,24.46,10.13h365.92v-2h-319.1c-8.7,0-16.89-3.39-23.04-9.55h0c-6.16-6.15-9.55-14.33-9.55-23.04,0-17.96,14.62-32.58,32.59-32.58h860.72c19.07,0,34.59-15.52,34.59-34.59v-8.4c0-19.07-15.52-34.59-34.59-34.59Z"/>
  <g>
    <rect class="cls-1" x="407.06" y="697.08" width="196.2" height="1"/>
    <rect class="cls-1" x="407.06" y="772.58" width="842.59" height="1"/>
    <rect class="cls-1" x="168.95" y="620.62" width="434.31" height="1"/>
    <g>
      <path class="cls-1" d="M672.71,654.24v10.22c0,18.3-14.83,33.12-33.12,33.12h-36.33c18.29,0,33.12-14.82,33.12-33.12v-10.22c0-18.29-14.83-33.12-33.12-33.12h36.33c18.29,0,33.12,14.83,33.12,33.12Z"/>
      <path class="cls-1" d="M639.59,698.08h-36.33v-1c17.99,0,32.62-14.63,32.62-32.62v-10.22c0-17.99-14.63-32.62-32.62-32.62v-1h36.33c18.54,0,33.62,15.08,33.62,33.62v10.22c0,18.54-15.08,33.62-33.62,33.62ZM611.42,697.08h28.18c17.99,0,32.62-14.63,32.62-32.62v-10.22c0-17.99-14.63-32.62-32.62-32.62h-28.18c14.61,3.65,25.47,16.89,25.47,32.62v10.22c0,15.73-10.85,28.97-25.47,32.62Z"/>
    </g>
    <g>
      <path class="cls-1" d="M407.06,773.08h-36.33c-18.3,0-33.12-14.82-33.12-33.12v-9.25c0-18.3,14.82-33.13,33.12-33.13h36.33c-18.29,0-33.12,14.83-33.12,33.13v9.25c0,18.3,14.83,33.12,33.12,33.12Z"/>
      <path class="cls-1" d="M407.06,773.58h-36.33c-18.54,0-33.62-15.08-33.62-33.62v-9.25c0-18.54,15.08-33.63,33.62-33.63h36.33v1c-17.99,0-32.62,14.64-32.62,32.63v9.25c0,17.99,14.63,32.62,32.62,32.62v1ZM370.73,698.08c-17.99,0-32.62,14.64-32.62,32.63v9.25c0,17.99,14.63,32.62,32.62,32.62h28.17c-14.61-3.65-25.46-16.89-25.46-32.62v-9.25c0-15.73,10.85-28.98,25.47-32.63h-28.18Z"/>
    </g>
    <rect class="cls-1" x="407.06" y="697.08" width="196.2" height="1"/>
    <rect class="cls-1" x="407.06" y="772.58" width="806.26" height="1"/>
    <rect class="cls-1" x="132.61" y="620.62" width="470.65" height="1"/>
  </g>
</svg>